<svg width="15" height="15" viewBox="0 0 15 15" fill="none" xmlns="http://www.w3.org/2000/svg">
<g clip-path="url(#clip0_3_58)">
<path d="M10.0003 3.75033C10.0003 4.41346 9.73691 5.04943 9.268 5.51834C8.7991 5.98724 8.16313 6.25067 7.5 6.25067C6.83687 6.25067 6.2009 5.98724 5.732 5.51834C5.26309 5.04943 4.99967 4.41346 4.99967 3.75033C4.99967 3.0872 5.26309 2.45123 5.732 1.98233C6.2009 1.51343 6.83687 1.25 7.5 1.25C8.16313 1.25 8.7991 1.51343 9.268 1.98233C9.73691 2.45123 10.0003 3.0872 10.0003 3.75033ZM2.5 13.1636C2.52143 11.8516 3.05763 10.6007 3.99298 9.68049C4.92833 8.76029 6.18788 8.24458 7.5 8.24458C8.81212 8.24458 10.0717 8.76029 11.007 9.68049C11.9424 10.6007 12.4786 11.8516 12.5 13.1636C10.9314 13.8829 9.22566 14.2541 7.5 14.2517C5.71576 14.2517 4.0222 13.8623 2.5 13.1636Z" stroke="white" stroke-width="1.5" stroke-linecap="round" stroke-linejoin="round"/>
</g>
<defs>
<clipPath id="clip0_3_58">
<rect width="15" height="15" fill="white"/>
</clipPath>
</defs>
</svg>
